<svg width="25" height="24" viewBox="0 0 25 24" fill="none" xmlns="http://www.w3.org/2000/svg">
<path d="M7.5 11V13H17.5V11C17.5 9.14 18.78 7.59 20.5 7.14V6C20.5 4.35 19.15 3 17.5 3H7.5C5.85 3 4.5 4.35 4.5 6V7.14C6.22 7.59 7.5 9.14 7.5 11Z" fill="#1BB1EC"/>
<path d="M21.5 9C20.4 9 19.5 9.9 19.5 11V15H5.5V11C5.5 9.9 4.6 9 3.5 9C2.4 9 1.5 9.9 1.5 11V16C1.5 17.65 2.85 19 4.5 19V20C4.5 20.55 4.95 21 5.5 21C6.05 21 6.5 20.55 6.5 20V19H18.5V20C18.5 20.55 18.95 21 19.5 21C20.05 21 20.5 20.55 20.5 20V19C22.15 19 23.5 17.65 23.5 16V11C23.5 9.9 22.6 9 21.5 9Z" fill="#1BB1EC"/>
</svg>
