<svg width="25" height="24" viewBox="0 0 25 24" fill="none" xmlns="http://www.w3.org/2000/svg">
<path d="M20.5 21C19.11 21 17.72 20.53 16.5 19.68C14.06 21.39 10.94 21.39 8.50001 19.68C7.28001 20.53 5.89001 21 4.50001 21H2.50001V23H4.50001C5.88001 23 7.24001 22.65 8.50001 22.01C11.02 23.3 13.98 23.3 16.5 22.01C17.76 22.66 19.12 23 20.5 23H22.5V21H20.5ZM4.45001 19H4.50001C6.10001 19 7.52001 18.12 8.50001 17C9.48001 18.12 10.9 19 12.5 19C14.1 19 15.52 18.12 16.5 17C17.48 18.12 18.9 19 20.5 19H20.55L22.44 12.32C22.52 12.06 22.5 11.78 22.38 11.54C22.26 11.3 22.04 11.12 21.78 11.04L20.5 10.62V6C20.5 4.9 19.6 4 18.5 4H15.5V1H9.50001V4H6.50001C5.40001 4 4.50001 4.9 4.50001 6V10.62L3.21001 11.04C2.95001 11.12 2.73001 11.3 2.61001 11.54C2.49001 11.78 2.46001 12.06 2.55001 12.32L4.45001 19ZM6.50001 6H18.5V9.97L12.5 8L6.50001 9.97V6Z" fill="#1646A8"/>
</svg>
